<mxfile host="app.diagrams.net" modified="2023-10-26T06:32:36.402Z" agent="Mozilla/5.0 (Windows NT 10.0; Win64; x64) AppleWebKit/537.36 (KHTML, like Gecko) Chrome/118.0.0.0 Safari/537.36" etag="4dA09QZ1W92Iqy2zzbjP" version="22.0.8" type="github">
  <diagram id="C5RBs43oDa-KdzZeNtuy" name="Page-1">
    <mxGraphModel dx="1837" dy="858" grid="1" gridSize="10" guides="1" tooltips="1" connect="1" arrows="1" fold="1" page="1" pageScale="1" pageWidth="827" pageHeight="1169" math="0" shadow="0">
      <root>
        <mxCell id="WIyWlLk6GJQsqaUBKTNV-0" />
        <mxCell id="WIyWlLk6GJQsqaUBKTNV-1" parent="WIyWlLk6GJQsqaUBKTNV-0" />
        <mxCell id="zfklzmeYC7Ft-h1iZyby-3" value="" style="edgeStyle=orthogonalEdgeStyle;rounded=0;orthogonalLoop=1;jettySize=auto;html=1;" parent="WIyWlLk6GJQsqaUBKTNV-1" source="WIyWlLk6GJQsqaUBKTNV-3" target="zfklzmeYC7Ft-h1iZyby-2" edge="1">
          <mxGeometry relative="1" as="geometry" />
        </mxCell>
        <mxCell id="WIyWlLk6GJQsqaUBKTNV-3" value="Mulai" style="rounded=1;whiteSpace=wrap;html=1;fontSize=12;glass=0;strokeWidth=2;shadow=0;shape=mxgraph.flowchart.terminator;" parent="WIyWlLk6GJQsqaUBKTNV-1" vertex="1">
          <mxGeometry x="40" y="10" width="100" height="50" as="geometry" />
        </mxCell>
        <mxCell id="__ayeiybQwEucT607R1I-3" value="" style="edgeStyle=orthogonalEdgeStyle;rounded=0;orthogonalLoop=1;jettySize=auto;html=1;" parent="WIyWlLk6GJQsqaUBKTNV-1" source="__ayeiybQwEucT607R1I-0" target="__ayeiybQwEucT607R1I-2" edge="1">
          <mxGeometry relative="1" as="geometry" />
        </mxCell>
        <mxCell id="zfklzmeYC7Ft-h1iZyby-1" value="Tidak" style="edgeLabel;html=1;align=center;verticalAlign=middle;resizable=0;points=[];" parent="__ayeiybQwEucT607R1I-3" vertex="1" connectable="0">
          <mxGeometry x="-0.8571" y="-1" relative="1" as="geometry">
            <mxPoint as="offset" />
          </mxGeometry>
        </mxCell>
        <mxCell id="zfklzmeYC7Ft-h1iZyby-8" value="" style="edgeStyle=orthogonalEdgeStyle;rounded=0;orthogonalLoop=1;jettySize=auto;html=1;" parent="WIyWlLk6GJQsqaUBKTNV-1" source="__ayeiybQwEucT607R1I-0" target="zfklzmeYC7Ft-h1iZyby-7" edge="1">
          <mxGeometry relative="1" as="geometry" />
        </mxCell>
        <mxCell id="zfklzmeYC7Ft-h1iZyby-9" value="Iya" style="edgeLabel;html=1;align=center;verticalAlign=middle;resizable=0;points=[];" parent="zfklzmeYC7Ft-h1iZyby-8" vertex="1" connectable="0">
          <mxGeometry x="0.1111" relative="1" as="geometry">
            <mxPoint as="offset" />
          </mxGeometry>
        </mxCell>
        <mxCell id="__ayeiybQwEucT607R1I-0" value="IF Admin" style="whiteSpace=wrap;html=1;rounded=1;glass=0;strokeWidth=2;shadow=0;shape=mxgraph.flowchart.decision;" parent="WIyWlLk6GJQsqaUBKTNV-1" vertex="1">
          <mxGeometry x="50" y="160" width="80" height="80" as="geometry" />
        </mxCell>
        <mxCell id="__ayeiybQwEucT607R1I-7" value="" style="edgeStyle=orthogonalEdgeStyle;rounded=0;orthogonalLoop=1;jettySize=auto;html=1;" parent="WIyWlLk6GJQsqaUBKTNV-1" source="__ayeiybQwEucT607R1I-2" target="__ayeiybQwEucT607R1I-6" edge="1">
          <mxGeometry relative="1" as="geometry" />
        </mxCell>
        <mxCell id="__ayeiybQwEucT607R1I-2" value="IF Nasabah" style="whiteSpace=wrap;html=1;rounded=1;glass=0;strokeWidth=2;shadow=0;shape=mxgraph.flowchart.decision;" parent="WIyWlLk6GJQsqaUBKTNV-1" vertex="1">
          <mxGeometry x="50" y="800" width="80" height="80" as="geometry" />
        </mxCell>
        <mxCell id="__ayeiybQwEucT607R1I-6" value="Selesai" style="rounded=1;whiteSpace=wrap;html=1;fontSize=12;glass=0;strokeWidth=2;shadow=0;shape=mxgraph.flowchart.terminator;" parent="WIyWlLk6GJQsqaUBKTNV-1" vertex="1">
          <mxGeometry x="40" y="950" width="100" height="50" as="geometry" />
        </mxCell>
        <mxCell id="__ayeiybQwEucT607R1I-11" value="" style="edgeStyle=orthogonalEdgeStyle;rounded=0;orthogonalLoop=1;jettySize=auto;html=1;" parent="WIyWlLk6GJQsqaUBKTNV-1" source="__ayeiybQwEucT607R1I-8" target="__ayeiybQwEucT607R1I-10" edge="1">
          <mxGeometry relative="1" as="geometry" />
        </mxCell>
        <mxCell id="zfklzmeYC7Ft-h1iZyby-15" value="" style="edgeStyle=orthogonalEdgeStyle;rounded=0;orthogonalLoop=1;jettySize=auto;html=1;" parent="WIyWlLk6GJQsqaUBKTNV-1" source="__ayeiybQwEucT607R1I-8" target="__ayeiybQwEucT607R1I-14" edge="1">
          <mxGeometry relative="1" as="geometry" />
        </mxCell>
        <mxCell id="__ayeiybQwEucT607R1I-8" value="Tambah Data" style="shape=process;whiteSpace=wrap;html=1;backgroundOutline=1;rounded=1;glass=0;strokeWidth=2;shadow=0;" parent="WIyWlLk6GJQsqaUBKTNV-1" vertex="1">
          <mxGeometry x="330" y="280" width="120" height="60" as="geometry" />
        </mxCell>
        <mxCell id="__ayeiybQwEucT607R1I-15" value="" style="edgeStyle=orthogonalEdgeStyle;rounded=0;orthogonalLoop=1;jettySize=auto;html=1;" parent="WIyWlLk6GJQsqaUBKTNV-1" source="__ayeiybQwEucT607R1I-10" target="__ayeiybQwEucT607R1I-14" edge="1">
          <mxGeometry relative="1" as="geometry" />
        </mxCell>
        <mxCell id="__ayeiybQwEucT607R1I-10" value="Nama, Saldo, PIN" style="shape=parallelogram;perimeter=parallelogramPerimeter;whiteSpace=wrap;html=1;fixedSize=1;rounded=1;glass=0;strokeWidth=2;shadow=0;" parent="WIyWlLk6GJQsqaUBKTNV-1" vertex="1">
          <mxGeometry x="325" y="370" width="130" height="60" as="geometry" />
        </mxCell>
        <mxCell id="__ayeiybQwEucT607R1I-17" value="" style="edgeStyle=orthogonalEdgeStyle;rounded=0;orthogonalLoop=1;jettySize=auto;html=1;" parent="WIyWlLk6GJQsqaUBKTNV-1" source="__ayeiybQwEucT607R1I-14" target="__ayeiybQwEucT607R1I-16" edge="1">
          <mxGeometry relative="1" as="geometry" />
        </mxCell>
        <mxCell id="__ayeiybQwEucT607R1I-14" value="Simpan" style="rounded=1;whiteSpace=wrap;html=1;absoluteArcSize=1;arcSize=14;strokeWidth=2;" parent="WIyWlLk6GJQsqaUBKTNV-1" vertex="1">
          <mxGeometry x="350" y="450" width="80" height="70" as="geometry" />
        </mxCell>
        <mxCell id="__ayeiybQwEucT607R1I-67" value="" style="edgeStyle=orthogonalEdgeStyle;rounded=0;orthogonalLoop=1;jettySize=auto;html=1;" parent="WIyWlLk6GJQsqaUBKTNV-1" source="__ayeiybQwEucT607R1I-16" target="__ayeiybQwEucT607R1I-19" edge="1">
          <mxGeometry relative="1" as="geometry" />
        </mxCell>
        <mxCell id="__ayeiybQwEucT607R1I-16" value="Database" style="strokeWidth=2;html=1;shape=mxgraph.flowchart.database;whiteSpace=wrap;" parent="WIyWlLk6GJQsqaUBKTNV-1" vertex="1">
          <mxGeometry x="360" y="540" width="60" height="60" as="geometry" />
        </mxCell>
        <mxCell id="zfklzmeYC7Ft-h1iZyby-21" value="" style="edgeStyle=orthogonalEdgeStyle;rounded=0;orthogonalLoop=1;jettySize=auto;html=1;entryX=0.442;entryY=1.006;entryDx=0;entryDy=0;entryPerimeter=0;exitX=0.5;exitY=1;exitDx=0;exitDy=0;" parent="WIyWlLk6GJQsqaUBKTNV-1" source="__ayeiybQwEucT607R1I-19" target="zfklzmeYC7Ft-h1iZyby-7" edge="1">
          <mxGeometry relative="1" as="geometry">
            <mxPoint x="240" y="270" as="targetPoint" />
            <Array as="points">
              <mxPoint x="390" y="760" />
              <mxPoint x="241" y="760" />
            </Array>
          </mxGeometry>
        </mxCell>
        <mxCell id="__ayeiybQwEucT607R1I-19" value="Berhasil Menyimpan Data" style="rounded=1;whiteSpace=wrap;html=1;absoluteArcSize=1;arcSize=14;strokeWidth=2;" parent="WIyWlLk6GJQsqaUBKTNV-1" vertex="1">
          <mxGeometry x="350" y="620" width="80" height="70" as="geometry" />
        </mxCell>
        <mxCell id="__ayeiybQwEucT607R1I-21" value="" style="edgeStyle=orthogonalEdgeStyle;rounded=0;orthogonalLoop=1;jettySize=auto;html=1;" parent="WIyWlLk6GJQsqaUBKTNV-1" source="__ayeiybQwEucT607R1I-22" target="__ayeiybQwEucT607R1I-24" edge="1">
          <mxGeometry relative="1" as="geometry" />
        </mxCell>
        <mxCell id="__ayeiybQwEucT607R1I-22" value="Baca Data" style="shape=process;whiteSpace=wrap;html=1;backgroundOutline=1;rounded=1;glass=0;strokeWidth=2;shadow=0;" parent="WIyWlLk6GJQsqaUBKTNV-1" vertex="1">
          <mxGeometry x="490" y="330" width="120" height="60" as="geometry" />
        </mxCell>
        <mxCell id="__ayeiybQwEucT607R1I-66" value="" style="edgeStyle=orthogonalEdgeStyle;rounded=0;orthogonalLoop=1;jettySize=auto;html=1;" parent="WIyWlLk6GJQsqaUBKTNV-1" source="__ayeiybQwEucT607R1I-24" target="__ayeiybQwEucT607R1I-27" edge="1">
          <mxGeometry relative="1" as="geometry" />
        </mxCell>
        <mxCell id="__ayeiybQwEucT607R1I-24" value="Nama, Saldo, PIN" style="shape=parallelogram;perimeter=parallelogramPerimeter;whiteSpace=wrap;html=1;fixedSize=1;rounded=1;glass=0;strokeWidth=2;shadow=0;" parent="WIyWlLk6GJQsqaUBKTNV-1" vertex="1">
          <mxGeometry x="485" y="430" width="130" height="60" as="geometry" />
        </mxCell>
        <mxCell id="__ayeiybQwEucT607R1I-70" value="" style="edgeStyle=orthogonalEdgeStyle;rounded=0;orthogonalLoop=1;jettySize=auto;html=1;" parent="WIyWlLk6GJQsqaUBKTNV-1" source="__ayeiybQwEucT607R1I-27" target="__ayeiybQwEucT607R1I-28" edge="1">
          <mxGeometry relative="1" as="geometry" />
        </mxCell>
        <mxCell id="__ayeiybQwEucT607R1I-27" value="Database" style="strokeWidth=2;html=1;shape=mxgraph.flowchart.database;whiteSpace=wrap;" parent="WIyWlLk6GJQsqaUBKTNV-1" vertex="1">
          <mxGeometry x="520" y="524.5" width="60" height="60" as="geometry" />
        </mxCell>
        <mxCell id="zfklzmeYC7Ft-h1iZyby-33" value="" style="edgeStyle=orthogonalEdgeStyle;rounded=0;orthogonalLoop=1;jettySize=auto;html=1;" parent="WIyWlLk6GJQsqaUBKTNV-1" source="__ayeiybQwEucT607R1I-28" edge="1">
          <mxGeometry relative="1" as="geometry">
            <mxPoint x="390" y="720" as="targetPoint" />
            <Array as="points">
              <mxPoint x="550" y="720" />
            </Array>
          </mxGeometry>
        </mxCell>
        <mxCell id="__ayeiybQwEucT607R1I-28" value="Menampilkan Isi database" style="rounded=1;whiteSpace=wrap;html=1;absoluteArcSize=1;arcSize=14;strokeWidth=2;" parent="WIyWlLk6GJQsqaUBKTNV-1" vertex="1">
          <mxGeometry x="510" y="620" width="80" height="70" as="geometry" />
        </mxCell>
        <mxCell id="__ayeiybQwEucT607R1I-45" value="" style="edgeStyle=orthogonalEdgeStyle;rounded=0;orthogonalLoop=1;jettySize=auto;html=1;" parent="WIyWlLk6GJQsqaUBKTNV-1" source="__ayeiybQwEucT607R1I-46" target="__ayeiybQwEucT607R1I-48" edge="1">
          <mxGeometry relative="1" as="geometry" />
        </mxCell>
        <mxCell id="__ayeiybQwEucT607R1I-46" value="Ubah Data" style="shape=process;whiteSpace=wrap;html=1;backgroundOutline=1;rounded=1;glass=0;strokeWidth=2;shadow=0;" parent="WIyWlLk6GJQsqaUBKTNV-1" vertex="1">
          <mxGeometry x="630" y="280" width="120" height="60" as="geometry" />
        </mxCell>
        <mxCell id="__ayeiybQwEucT607R1I-47" value="" style="edgeStyle=orthogonalEdgeStyle;rounded=0;orthogonalLoop=1;jettySize=auto;html=1;" parent="WIyWlLk6GJQsqaUBKTNV-1" source="__ayeiybQwEucT607R1I-48" target="__ayeiybQwEucT607R1I-50" edge="1">
          <mxGeometry relative="1" as="geometry" />
        </mxCell>
        <mxCell id="__ayeiybQwEucT607R1I-48" value="Nama, Saldo, PIN" style="shape=parallelogram;perimeter=parallelogramPerimeter;whiteSpace=wrap;html=1;fixedSize=1;rounded=1;glass=0;strokeWidth=2;shadow=0;" parent="WIyWlLk6GJQsqaUBKTNV-1" vertex="1">
          <mxGeometry x="625" y="370" width="130" height="60" as="geometry" />
        </mxCell>
        <mxCell id="__ayeiybQwEucT607R1I-49" value="" style="edgeStyle=orthogonalEdgeStyle;rounded=0;orthogonalLoop=1;jettySize=auto;html=1;" parent="WIyWlLk6GJQsqaUBKTNV-1" source="__ayeiybQwEucT607R1I-50" target="__ayeiybQwEucT607R1I-51" edge="1">
          <mxGeometry relative="1" as="geometry" />
        </mxCell>
        <mxCell id="__ayeiybQwEucT607R1I-50" value="Ubah" style="rounded=1;whiteSpace=wrap;html=1;absoluteArcSize=1;arcSize=14;strokeWidth=2;" parent="WIyWlLk6GJQsqaUBKTNV-1" vertex="1">
          <mxGeometry x="650" y="450" width="80" height="70" as="geometry" />
        </mxCell>
        <mxCell id="__ayeiybQwEucT607R1I-68" value="" style="edgeStyle=orthogonalEdgeStyle;rounded=0;orthogonalLoop=1;jettySize=auto;html=1;" parent="WIyWlLk6GJQsqaUBKTNV-1" source="__ayeiybQwEucT607R1I-51" target="__ayeiybQwEucT607R1I-52" edge="1">
          <mxGeometry relative="1" as="geometry" />
        </mxCell>
        <mxCell id="__ayeiybQwEucT607R1I-51" value="Database" style="strokeWidth=2;html=1;shape=mxgraph.flowchart.database;whiteSpace=wrap;" parent="WIyWlLk6GJQsqaUBKTNV-1" vertex="1">
          <mxGeometry x="660" y="540" width="60" height="60" as="geometry" />
        </mxCell>
        <mxCell id="S6rQgcGVSZa5r53mqII1-7" style="edgeStyle=orthogonalEdgeStyle;rounded=0;orthogonalLoop=1;jettySize=auto;html=1;exitX=0.5;exitY=1;exitDx=0;exitDy=0;" edge="1" parent="WIyWlLk6GJQsqaUBKTNV-1" source="__ayeiybQwEucT607R1I-52">
          <mxGeometry relative="1" as="geometry">
            <mxPoint x="390" y="730" as="targetPoint" />
            <Array as="points">
              <mxPoint x="690" y="730" />
              <mxPoint x="390" y="730" />
            </Array>
          </mxGeometry>
        </mxCell>
        <mxCell id="__ayeiybQwEucT607R1I-52" value="Berhasil Mengubah Data" style="rounded=1;whiteSpace=wrap;html=1;absoluteArcSize=1;arcSize=14;strokeWidth=2;" parent="WIyWlLk6GJQsqaUBKTNV-1" vertex="1">
          <mxGeometry x="650" y="620" width="80" height="70" as="geometry" />
        </mxCell>
        <mxCell id="__ayeiybQwEucT607R1I-53" value="" style="edgeStyle=orthogonalEdgeStyle;rounded=0;orthogonalLoop=1;jettySize=auto;html=1;" parent="WIyWlLk6GJQsqaUBKTNV-1" source="__ayeiybQwEucT607R1I-54" target="__ayeiybQwEucT607R1I-56" edge="1">
          <mxGeometry relative="1" as="geometry" />
        </mxCell>
        <mxCell id="__ayeiybQwEucT607R1I-54" value="Hapus Data" style="shape=process;whiteSpace=wrap;html=1;backgroundOutline=1;rounded=1;glass=0;strokeWidth=2;shadow=0;" parent="WIyWlLk6GJQsqaUBKTNV-1" vertex="1">
          <mxGeometry x="770" y="280" width="120" height="60" as="geometry" />
        </mxCell>
        <mxCell id="__ayeiybQwEucT607R1I-55" value="" style="edgeStyle=orthogonalEdgeStyle;rounded=0;orthogonalLoop=1;jettySize=auto;html=1;" parent="WIyWlLk6GJQsqaUBKTNV-1" source="__ayeiybQwEucT607R1I-56" target="__ayeiybQwEucT607R1I-58" edge="1">
          <mxGeometry relative="1" as="geometry" />
        </mxCell>
        <mxCell id="__ayeiybQwEucT607R1I-56" value="Nama, Saldo, PIN" style="shape=parallelogram;perimeter=parallelogramPerimeter;whiteSpace=wrap;html=1;fixedSize=1;rounded=1;glass=0;strokeWidth=2;shadow=0;" parent="WIyWlLk6GJQsqaUBKTNV-1" vertex="1">
          <mxGeometry x="770" y="370" width="120" height="60" as="geometry" />
        </mxCell>
        <mxCell id="__ayeiybQwEucT607R1I-57" value="" style="edgeStyle=orthogonalEdgeStyle;rounded=0;orthogonalLoop=1;jettySize=auto;html=1;" parent="WIyWlLk6GJQsqaUBKTNV-1" source="__ayeiybQwEucT607R1I-58" target="__ayeiybQwEucT607R1I-59" edge="1">
          <mxGeometry relative="1" as="geometry" />
        </mxCell>
        <mxCell id="__ayeiybQwEucT607R1I-58" value="Hapus" style="rounded=1;whiteSpace=wrap;html=1;absoluteArcSize=1;arcSize=14;strokeWidth=2;" parent="WIyWlLk6GJQsqaUBKTNV-1" vertex="1">
          <mxGeometry x="790" y="450" width="80" height="70" as="geometry" />
        </mxCell>
        <mxCell id="__ayeiybQwEucT607R1I-69" value="" style="edgeStyle=orthogonalEdgeStyle;rounded=0;orthogonalLoop=1;jettySize=auto;html=1;" parent="WIyWlLk6GJQsqaUBKTNV-1" source="__ayeiybQwEucT607R1I-59" target="__ayeiybQwEucT607R1I-60" edge="1">
          <mxGeometry relative="1" as="geometry" />
        </mxCell>
        <mxCell id="__ayeiybQwEucT607R1I-59" value="Database" style="strokeWidth=2;html=1;shape=mxgraph.flowchart.database;whiteSpace=wrap;" parent="WIyWlLk6GJQsqaUBKTNV-1" vertex="1">
          <mxGeometry x="800" y="540" width="60" height="60" as="geometry" />
        </mxCell>
        <mxCell id="S6rQgcGVSZa5r53mqII1-8" style="edgeStyle=orthogonalEdgeStyle;rounded=0;orthogonalLoop=1;jettySize=auto;html=1;exitX=0.5;exitY=1;exitDx=0;exitDy=0;" edge="1" parent="WIyWlLk6GJQsqaUBKTNV-1" source="__ayeiybQwEucT607R1I-60">
          <mxGeometry relative="1" as="geometry">
            <mxPoint x="390" y="740" as="targetPoint" />
            <Array as="points">
              <mxPoint x="830" y="740" />
              <mxPoint x="390" y="740" />
            </Array>
          </mxGeometry>
        </mxCell>
        <mxCell id="__ayeiybQwEucT607R1I-60" value="Berhasil Menghapus Data" style="rounded=1;whiteSpace=wrap;html=1;absoluteArcSize=1;arcSize=14;strokeWidth=2;" parent="WIyWlLk6GJQsqaUBKTNV-1" vertex="1">
          <mxGeometry x="790" y="620" width="80" height="70" as="geometry" />
        </mxCell>
        <mxCell id="zfklzmeYC7Ft-h1iZyby-4" value="" style="edgeStyle=orthogonalEdgeStyle;rounded=0;orthogonalLoop=1;jettySize=auto;html=1;" parent="WIyWlLk6GJQsqaUBKTNV-1" source="zfklzmeYC7Ft-h1iZyby-2" target="__ayeiybQwEucT607R1I-0" edge="1">
          <mxGeometry relative="1" as="geometry" />
        </mxCell>
        <mxCell id="zfklzmeYC7Ft-h1iZyby-2" value="INPUT Admin / Nasabah / Keluar" style="shape=parallelogram;perimeter=parallelogramPerimeter;whiteSpace=wrap;html=1;fixedSize=1;rounded=1;glass=0;strokeWidth=2;shadow=0;" parent="WIyWlLk6GJQsqaUBKTNV-1" vertex="1">
          <mxGeometry x="7.5" y="80" width="165" height="50" as="geometry" />
        </mxCell>
        <mxCell id="zfklzmeYC7Ft-h1iZyby-11" value="" style="edgeStyle=orthogonalEdgeStyle;rounded=0;orthogonalLoop=1;jettySize=auto;html=1;" parent="WIyWlLk6GJQsqaUBKTNV-1" source="zfklzmeYC7Ft-h1iZyby-7" target="zfklzmeYC7Ft-h1iZyby-10" edge="1">
          <mxGeometry relative="1" as="geometry" />
        </mxCell>
        <mxCell id="zfklzmeYC7Ft-h1iZyby-7" value="INPUT pilihan menu&lt;br&gt;1.Tambah Data&lt;br&gt;2. Baca Data&lt;br&gt;3. Ubah Data&lt;br&gt;4. Hapus Data&lt;br&gt;5. Keluar" style="shape=parallelogram;perimeter=parallelogramPerimeter;whiteSpace=wrap;html=1;fixedSize=1;rounded=1;glass=0;strokeWidth=2;shadow=0;" parent="WIyWlLk6GJQsqaUBKTNV-1" vertex="1">
          <mxGeometry x="170" y="156.25" width="160" height="87.5" as="geometry" />
        </mxCell>
        <mxCell id="zfklzmeYC7Ft-h1iZyby-13" value="" style="edgeStyle=orthogonalEdgeStyle;rounded=0;orthogonalLoop=1;jettySize=auto;html=1;" parent="WIyWlLk6GJQsqaUBKTNV-1" source="zfklzmeYC7Ft-h1iZyby-10" target="zfklzmeYC7Ft-h1iZyby-12" edge="1">
          <mxGeometry relative="1" as="geometry" />
        </mxCell>
        <mxCell id="zfklzmeYC7Ft-h1iZyby-18" value="Tidak" style="edgeLabel;html=1;align=center;verticalAlign=middle;resizable=0;points=[];" parent="zfklzmeYC7Ft-h1iZyby-13" vertex="1" connectable="0">
          <mxGeometry x="-0.0455" y="1" relative="1" as="geometry">
            <mxPoint as="offset" />
          </mxGeometry>
        </mxCell>
        <mxCell id="zfklzmeYC7Ft-h1iZyby-16" value="" style="edgeStyle=orthogonalEdgeStyle;rounded=0;orthogonalLoop=1;jettySize=auto;html=1;" parent="WIyWlLk6GJQsqaUBKTNV-1" source="zfklzmeYC7Ft-h1iZyby-10" target="__ayeiybQwEucT607R1I-8" edge="1">
          <mxGeometry relative="1" as="geometry" />
        </mxCell>
        <mxCell id="zfklzmeYC7Ft-h1iZyby-19" value="Iya" style="edgeLabel;html=1;align=center;verticalAlign=middle;resizable=0;points=[];" parent="zfklzmeYC7Ft-h1iZyby-16" vertex="1" connectable="0">
          <mxGeometry x="-0.2903" relative="1" as="geometry">
            <mxPoint as="offset" />
          </mxGeometry>
        </mxCell>
        <mxCell id="zfklzmeYC7Ft-h1iZyby-10" value="IF Pilihan 1" style="whiteSpace=wrap;html=1;rounded=1;glass=0;strokeWidth=2;shadow=0;shape=mxgraph.flowchart.decision;" parent="WIyWlLk6GJQsqaUBKTNV-1" vertex="1">
          <mxGeometry x="350" y="160" width="80" height="80" as="geometry" />
        </mxCell>
        <mxCell id="zfklzmeYC7Ft-h1iZyby-22" value="" style="edgeStyle=orthogonalEdgeStyle;rounded=0;orthogonalLoop=1;jettySize=auto;html=1;" parent="WIyWlLk6GJQsqaUBKTNV-1" source="zfklzmeYC7Ft-h1iZyby-12" target="__ayeiybQwEucT607R1I-22" edge="1">
          <mxGeometry relative="1" as="geometry" />
        </mxCell>
        <mxCell id="zfklzmeYC7Ft-h1iZyby-23" value="Iya" style="edgeLabel;html=1;align=center;verticalAlign=middle;resizable=0;points=[];" parent="zfklzmeYC7Ft-h1iZyby-22" vertex="1" connectable="0">
          <mxGeometry x="-0.4222" relative="1" as="geometry">
            <mxPoint as="offset" />
          </mxGeometry>
        </mxCell>
        <mxCell id="zfklzmeYC7Ft-h1iZyby-29" value="" style="edgeStyle=orthogonalEdgeStyle;rounded=0;orthogonalLoop=1;jettySize=auto;html=1;" parent="WIyWlLk6GJQsqaUBKTNV-1" source="zfklzmeYC7Ft-h1iZyby-12" target="zfklzmeYC7Ft-h1iZyby-28" edge="1">
          <mxGeometry relative="1" as="geometry" />
        </mxCell>
        <mxCell id="zfklzmeYC7Ft-h1iZyby-31" value="Tidak" style="edgeLabel;html=1;align=center;verticalAlign=middle;resizable=0;points=[];" parent="zfklzmeYC7Ft-h1iZyby-29" vertex="1" connectable="0">
          <mxGeometry x="-0.1432" y="3" relative="1" as="geometry">
            <mxPoint as="offset" />
          </mxGeometry>
        </mxCell>
        <mxCell id="zfklzmeYC7Ft-h1iZyby-12" value="IF Pilihan 2" style="whiteSpace=wrap;html=1;rounded=1;glass=0;strokeWidth=2;shadow=0;shape=mxgraph.flowchart.decision;" parent="WIyWlLk6GJQsqaUBKTNV-1" vertex="1">
          <mxGeometry x="510" y="160" width="80" height="80" as="geometry" />
        </mxCell>
        <mxCell id="S6rQgcGVSZa5r53mqII1-0" value="" style="edgeStyle=orthogonalEdgeStyle;rounded=0;orthogonalLoop=1;jettySize=auto;html=1;" edge="1" parent="WIyWlLk6GJQsqaUBKTNV-1" source="zfklzmeYC7Ft-h1iZyby-28" target="__ayeiybQwEucT607R1I-46">
          <mxGeometry relative="1" as="geometry" />
        </mxCell>
        <mxCell id="S6rQgcGVSZa5r53mqII1-1" value="Iya" style="edgeLabel;html=1;align=center;verticalAlign=middle;resizable=0;points=[];" vertex="1" connectable="0" parent="S6rQgcGVSZa5r53mqII1-0">
          <mxGeometry x="-0.183" relative="1" as="geometry">
            <mxPoint as="offset" />
          </mxGeometry>
        </mxCell>
        <mxCell id="S6rQgcGVSZa5r53mqII1-3" value="" style="edgeStyle=orthogonalEdgeStyle;rounded=0;orthogonalLoop=1;jettySize=auto;html=1;" edge="1" parent="WIyWlLk6GJQsqaUBKTNV-1" source="zfklzmeYC7Ft-h1iZyby-28" target="S6rQgcGVSZa5r53mqII1-2">
          <mxGeometry relative="1" as="geometry" />
        </mxCell>
        <mxCell id="S6rQgcGVSZa5r53mqII1-4" value="Tidak" style="edgeLabel;html=1;align=center;verticalAlign=middle;resizable=0;points=[];" vertex="1" connectable="0" parent="S6rQgcGVSZa5r53mqII1-3">
          <mxGeometry x="-0.0229" relative="1" as="geometry">
            <mxPoint as="offset" />
          </mxGeometry>
        </mxCell>
        <mxCell id="zfklzmeYC7Ft-h1iZyby-28" value="IF Pilihan 3" style="whiteSpace=wrap;html=1;rounded=1;glass=0;strokeWidth=2;shadow=0;shape=mxgraph.flowchart.decision;" parent="WIyWlLk6GJQsqaUBKTNV-1" vertex="1">
          <mxGeometry x="650" y="160" width="80" height="80" as="geometry" />
        </mxCell>
        <mxCell id="S6rQgcGVSZa5r53mqII1-5" value="" style="edgeStyle=orthogonalEdgeStyle;rounded=0;orthogonalLoop=1;jettySize=auto;html=1;" edge="1" parent="WIyWlLk6GJQsqaUBKTNV-1" source="S6rQgcGVSZa5r53mqII1-2" target="__ayeiybQwEucT607R1I-54">
          <mxGeometry relative="1" as="geometry" />
        </mxCell>
        <mxCell id="S6rQgcGVSZa5r53mqII1-2" value="IF Pilihan 4" style="whiteSpace=wrap;html=1;rounded=1;glass=0;strokeWidth=2;shadow=0;shape=mxgraph.flowchart.decision;" vertex="1" parent="WIyWlLk6GJQsqaUBKTNV-1">
          <mxGeometry x="790" y="160" width="80" height="80" as="geometry" />
        </mxCell>
      </root>
    </mxGraphModel>
  </diagram>
</mxfile>
